<?xml version="1.0" encoding="UTF-8" standalone="no"?>
<!-- Generator: Adobe Illustrator 19.0.0, SVG Export Plug-In . SVG Version: 6.00 Build 0)  -->
<svg id="Layer_1" style="enable-background:new -1162.7 706 137.2 31.3" xmlns="http://www.w3.org/2000/svg" xml:space="preserve" viewBox="-1162.7 706 137.2 31.3" version="1.1" y="0px" x="0px" xmlns:xlink="http://www.w3.org/1999/xlink">
<style type="text/css">
	.st0{fill:#0DBCE6;}
	.st1{fill:#3D4097;}
</style>
	<path class="st0" d="m-1150.7 716.9c-1.4-1.2-2.8-1.5-4.3-1.5-2.2 0-4.2 0.8-4.2 2.6 0.1 1.9 2.5 2.2 4.2 2.5 2.5 0.4 5.9 0.8 5.7 4.1-0.1 3.1-3.3 3.9-5.7 3.9s-4.9-0.9-6.1-2.8l1-0.9c1.2 1.7 3.2 2.4 5.1 2.4 1.7 0 4.2-0.4 4.3-2.6 0.1-2-2.2-2.4-4.5-2.8-2.7-0.4-5.4-1-5.4-3.7s2.7-3.9 5.5-3.9c2 0 3.8 0.6 5.2 1.9l-0.8 0.8z"/>
	<path class="st0" d="m-1155 729.1c-2.9 0-5.4-1.1-6.6-3.1l-0.3-0.5 2-1.7 0.4 0.6c0.9 1.3 2.6 2.1 4.6 2.1 1.1 0 3.6-0.2 3.7-2 0-1.4-1.6-1.7-4-2.1-2.6-0.4-5.9-1-5.9-4.4 0-1.1 0.4-2.1 1.1-2.9 1.1-1.1 2.8-1.7 4.9-1.7 2.4 0 4.3 0.7 5.7 2l0.4 0.6-1.7 1.8-0.5-0.4c-1.3-1.1-2.5-1.3-4-1.3-1.3 0-2.5 0.4-3.1 0.9-0.3 0.3-0.4 0.6-0.4 1 0 1.2 1.6 1.6 3.5 1.9l0.5 0.1c2.4 0.4 6.1 1 5.9 4.7 0 3.3-3.2 4.4-6.2 4.4zm-5.2-3.3c1.1 1.3 3 2.1 5.2 2.1 1.2 0 5-0.2 5.1-3.3 0.1-1.5-0.7-2.2-2-2.7 1.2 0.5 2 1.2 2 2.7-0.1 2-1.9 3.3-5 3.3-2.2-0.1-4.1-0.9-5.3-2.1zm5-11c-1.7 0-3.2 0.5-4 1.3-0.5 0.5-0.8 1.2-0.8 1.9 0 1.5 1 2.2 2.6 2.6-1.3-0.4-2.5-1.1-2.5-2.6 0-0.7 0.2-1.4 0.8-1.9 0.8-0.9 2.3-1.3 4.1-1.3 0.4 0 0.8 0 1.2 0.1-0.5-0.1-0.9-0.1-1.4-0.1z"/>
	<path class="st0" d="m-1144.8 721.3c0-4.2 3.1-7.2 7.1-7.2 3.9 0 7.4 3 7.3 7.8h-13c0.3 3.3 2.8 5.1 5.7 5.1 1.8 0 4-0.7 5-2.1l1 0.8c-1.3 1.8-3.8 2.7-6 2.7-4 0.1-7.1-2.7-7.1-7.1zm12.7-0.5c-0.3-3.3-1.9-5.6-5.7-5.3-2.9 0.2-5.3 1.9-5.7 5.3h11.4z"/>
	<path class="st0" d="m-1137.8 729.1c-4.5 0-7.7-3.3-7.7-7.8s3.3-7.8 7.7-7.8c2.2 0 4.2 0.8 5.7 2.3 1.5 1.6 2.3 3.7 2.3 6.1v0.6h-12.9c0.5 2.7 2.8 3.9 4.9 3.9 1.8 0 3.7-0.8 4.5-1.9l0.4-0.5 2 1.6-0.4 0.5c-1.4 1.9-3.9 3-6.5 3zm-0.2-14.3c-3.6 0.1-6.3 2.9-6.3 6.5 0 3.8 2.6 6.5 6.4 6.5 1.8 0 3.5-0.6 4.7-1.6-1.3 1.1-3.2 1.5-4.7 1.5-3.4 0-6-2.4-6.3-5.7l-0.1-0.6 0.1-0.6c0.4-3.4 2.8-5.7 6.2-6zm6 3.2c0.3 0.8 0.5 1.7 0.6 2.7v0.6h0.3c-0.1-1.2-0.4-2.3-0.9-3.3zm-10.7 2.1h9.9c-0.4-2.9-2.1-4.2-5-4.1-2 0.2-4.3 1.3-4.9 4.1z"/>
	<path class="st0" d="m-1123.8 707.3v20.9h-1.4v-20.9h1.4z"/>
	<path class="st0" d="m-1123.2 728.9h-2.7v-22.2h2.7v22.2zm-1.3-1.3h0.1v-20.3h-0.1v20.3z"/>
	<path class="st0" d="m-1117 707.3v20.9h-1.4v-20.9h1.4z"/>
	<path class="st0" d="m-1116.4 728.9h-2.6v-22.2h2.7l-0.1 22.2zm-1.4-1.3l0.1-20.3h-0.1v20.3z"/>
	<path class="st0" d="m-1111.8 721.3c0-4.2 3.1-7.2 7.1-7.2 3.9 0 7.4 2.4 6.9 7.8h-12.6c0.3 3.3 2.8 5.1 5.7 5.1 1.8 0 4-0.7 5-2.1l1 0.8c-1.3 1.8-3.8 2.7-6 2.7-3.9 0.1-7.1-2.7-7.1-7.1zm12.7-0.5c0-3.4-2.3-5.3-5.6-5.3-2.9 0-5.3 1.9-5.7 5.3h11.3z"/>
	<path class="st0" d="m-1104.7 729.1c-4.5 0-7.7-3.3-7.7-7.8s3.3-7.8 7.7-7.8c2.4 0 4.4 0.8 5.8 2.3s2 3.7 1.7 6.2l-0.1 0.6h-12.3c0.5 2.7 2.8 3.9 4.9 3.9 1.8 0 3.7-0.8 4.5-1.9l0.4-0.5 2 1.6-0.4 0.5c-1.4 1.8-3.9 2.9-6.5 2.9zm-3.9-13.1c-1.6 1.2-2.6 3.1-2.6 5.3 0 3.8 2.6 6.5 6.4 6.5 1.8 0 3.5-0.6 4.7-1.6-1.3 1.1-3.2 1.5-4.7 1.5-3.4 0-6-2.4-6.3-5.7l-0.1-0.6 0.1-0.6c0.3-2.1 1.2-3.7 2.5-4.8zm10.2 5.3c0.1-1.9-0.4-3.5-1.4-4.7l-0.1-0.1c1 1 1.5 2.5 1.5 4.2v0.6zm-11.2-1.2h9.9c-0.3-2.6-2.1-4.1-5-4.1-2.5 0.1-4.4 1.7-4.9 4.1z"/>
	<path class="st1" d="m-1060 736v-19.2h1.3v1.4c1.1-2.1 3.3-3.5 6-3.5 3.8 0.1 6.7 2.7 6.7 7.1 0 4.7-3.1 7.2-7.1 7.2-2.4 0-4.6-1.2-5.7-3.5v10.5h-1.2zm12.8-14c0-3.9-2.5-5.8-5.7-5.8s-5.6 2.4-5.6 5.8 2.4 5.8 5.6 5.8c3.1 0 5.7-1.9 5.7-5.8z"/>
	<path class="st1" d="m-1058 736.6h-2.6v-20.4l2.6 0.1v0.1c1.3-1.4 3.3-2.2 5.4-2.2 4.4 0.2 7.4 3.3 7.4 7.8 0 4.7-3.1 7.8-7.7 7.8-2 0-3.8-0.8-5.1-2.1v8.9zm-1.3-1.3v-12.3l0.3 0.6c-0.1-0.5-0.2-1.1-0.2-1.7 0-0.5 0.1-1.1 0.2-1.5l-0.2 0.5v-3.4h-0.1v17.8zm3.2-7.7c0.9 0.6 2 0.9 3.2 0.9 3.9 0 6.4-2.6 6.4-6.6 0-3.8-2.4-6.4-6.1-6.5-0.4 0-0.9 0-1.3 0.1 0.3 0 0.6-0.1 1-0.1 3.8 0 6.3 2.5 6.3 6.5s-2.5 6.5-6.3 6.5c-1.2 0.1-2.3-0.2-3.2-0.8zm3.2-10.8c-2.9 0-5 2.2-5 5.2s2.1 5.2 5 5.2c2.4 0 5-1.4 5-5.2 0-3.3-1.8-5.2-5-5.2z"/>
	<path class="st1" d="m-1041 736v-19.2h1.3v1.4c1.1-2.1 3.3-3.5 6-3.5 3.8 0.1 6.7 2.7 6.7 7.1 0 4.7-3.1 7.2-7.1 7.2-2.4 0-4.6-1.2-5.7-3.5v10.5h-1.2zm12.7-14c0-3.9-2.5-5.8-5.7-5.8s-5.6 2.4-5.6 5.8 2.4 5.8 5.6 5.8c3.2 0 5.7-1.9 5.7-5.8z"/>
	<path class="st1" d="m-1039.1 736.6h-2.6v-20.4l2.6 0.1v0.1c1.3-1.4 3.3-2.2 5.4-2.2 4.4 0.2 7.4 3.3 7.4 7.8 0 4.7-3.1 7.8-7.7 7.8-2 0-3.8-0.8-5.1-2.1v8.9zm-1.3-1.3v-12.3l0.3 0.6c-0.1-0.5-0.2-1.1-0.2-1.7 0-0.5 0.1-1.1 0.2-1.5l-0.2 0.5v-3.4h-0.1v17.8zm3.3-7.7c0.9 0.6 2 0.9 3.2 0.9 3.9 0 6.4-2.6 6.4-6.6 0-3.8-2.4-6.4-6.1-6.5-0.4 0-0.9 0-1.3 0.1 0.3 0 0.6-0.1 1-0.1 3.8 0 6.3 2.5 6.3 6.5s-2.5 6.5-6.3 6.5c-1.3 0.1-2.3-0.2-3.2-0.8zm3.1-10.8c-2.9 0-5 2.2-5 5.2s2.1 5.2 5 5.2c2.4 0 5-1.4 5-5.2 0.1-3.3-1.8-5.2-5-5.2z"/>
	<path class="st1" d="m-1066.7 729.6v-4c-1.2 2.3-3.4 3.5-5.7 3.5-3.9 0-7.1-2.5-7.1-7.2 0-4.5 3-7 6.7-7.1 2.7 0 4.9 1.4 6 3.5v-1.4h1.3v12.8h-1.2v-0.1zm-5.8-1.8c3.2 0 5.6-2.4 5.6-5.8s-2.4-5.8-5.6-5.8c-3.1 0-5.7 1.9-5.7 5.8s2.6 5.8 5.7 5.8z"/>
	<path class="st1" d="m-1067.4 727.7c-1.3 1.3-3.1 2.1-5.1 2.1-4.6 0-7.7-3.1-7.7-7.8 0-4.5 3-7.6 7.4-7.8 2.1 0 4 0.8 5.4 2.2v-0.1l2.6-0.1v13.6h-2.6v-2.1zm1.4-10.2l-0.1 3.4-0.2-0.5c0.1 0.5 0.2 1 0.2 1.5 0 0.6-0.1 1.1-0.2 1.7l0.3-0.6v6-11.5zm-6.5 11c-3.8 0-6.3-2.6-6.3-6.5s2.5-6.5 6.3-6.5c0.3 0 0.7 0 1 0.1-0.4-0.1-0.8-0.1-1.3-0.1-3.7 0.1-6.1 2.7-6.1 6.5 0 3.9 2.5 6.5 6.4 6.5 1.2 0 2.3-0.3 3.2-0.8-0.9 0.5-2 0.8-3.2 0.8zm-5-6.5c0 3.9 2.6 5.2 5 5.2 2.9 0 5-2.2 5-5.2s-2.1-5.2-5-5.2c-3.1 0-5 1.9-5 5.2z"/>
	<path class="st0" d="m-1092.3 720v8.6h1v-8.6c0-4.7 5.2-5.7 7.5-3l0.7-0.8c-2.8-3.1-9.2-1.8-9.2 3.8z"/>
	<path class="st0" d="m-1090.4 729.5h-2.7v-9.5c0-2.7 1.4-4.9 3.8-5.8s5.2-0.3 6.9 1.5l0.5 0.5-1.8 2-0.6-0.7c-0.9-1.1-2.5-1.5-3.9-0.9-1.4 0.5-2.2 1.8-2.2 3.4v9.5z"/>
</svg>